<svg width="100%" height="auto" viewBox="0 0 1200 560" preserveAspectRatio="xMidYMid meet" fill="none" xmlns="http://www.w3.org/2000/svg" role="img" aria-label="bingchuH — AI Product Manager">
  <defs>
    <linearGradient id="bg" x1="0" y1="0" x2="1200" y2="560" gradientUnits="userSpaceOnUse">
      <stop stop-color="#F7FAFF"/>
      <stop offset="0.42" stop-color="#F4F0FF"/>
      <stop offset="1" stop-color="#ECFEFF"/>
    </linearGradient>
    <radialGradient id="orb1" cx="0" cy="0" r="1" gradientUnits="userSpaceOnUse" gradientTransform="translate(260 135) rotate(44) scale(340 250)">
      <stop stop-color="#A78BFA" stop-opacity="0.72"/>
      <stop offset="1" stop-color="#A78BFA" stop-opacity="0"/>
    </radialGradient>
    <radialGradient id="orb2" cx="0" cy="0" r="1" gradientUnits="userSpaceOnUse" gradientTransform="translate(930 112) rotate(134) scale(310 230)">
      <stop stop-color="#60A5FA" stop-opacity="0.62"/>
      <stop offset="1" stop-color="#60A5FA" stop-opacity="0"/>
    </radialGradient>
    <radialGradient id="orb3" cx="0" cy="0" r="1" gradientUnits="userSpaceOnUse" gradientTransform="translate(760 455) rotate(90) scale(360 260)">
      <stop stop-color="#2DD4BF" stop-opacity="0.45"/>
      <stop offset="1" stop-color="#2DD4BF" stop-opacity="0"/>
    </radialGradient>
    <linearGradient id="stroke" x1="140" y1="92" x2="1060" y2="470" gradientUnits="userSpaceOnUse">
      <stop stop-color="#FFFFFF" stop-opacity="0.95"/>
      <stop offset="0.5" stop-color="#FFFFFF" stop-opacity="0.45"/>
      <stop offset="1" stop-color="#FFFFFF" stop-opacity="0.72"/>
    </linearGradient>
    <linearGradient id="title" x1="260" y1="215" x2="940" y2="215" gradientUnits="userSpaceOnUse">
      <stop stop-color="#111827"/>
      <stop offset="0.55" stop-color="#4338CA"/>
      <stop offset="1" stop-color="#0F766E"/>
    </linearGradient>
    <filter id="shadow" x="80" y="50" width="1040" height="470" filterUnits="userSpaceOnUse" color-interpolation-filters="sRGB">
      <feDropShadow dx="0" dy="32" stdDeviation="42" flood-color="#64748B" flood-opacity="0.22"/>
      <feDropShadow dx="0" dy="2" stdDeviation="10" flood-color="#FFFFFF" flood-opacity="0.85"/>
    </filter>
    <filter id="soft" x="0" y="0" width="1200" height="560" filterUnits="userSpaceOnUse">
      <feGaussianBlur stdDeviation="0"/>
    </filter>
  </defs>
  <rect width="1200" height="560" rx="48" fill="url(#bg)"/>
  <rect width="1200" height="560" rx="48" fill="url(#orb1)"/>
  <rect width="1200" height="560" rx="48" fill="url(#orb2)"/>
  <rect width="1200" height="560" rx="48" fill="url(#orb3)"/>
  <g opacity="0.36">
    <path d="M64 420C222 325 313 487 482 396C650 305 708 132 890 199C986 235 1015 348 1138 300" stroke="#FFFFFF" stroke-width="2"/>
    <path d="M68 138C232 227 311 69 487 158C641 236 751 370 914 286C1002 241 1049 156 1137 192" stroke="#FFFFFF" stroke-width="2"/>
  </g>
  <g filter="url(#shadow)">
    <rect x="140" y="92" width="920" height="376" rx="42" fill="#FFFFFF" fill-opacity="0.58"/>
    <rect x="140.75" y="92.75" width="918.5" height="374.5" rx="41.25" stroke="url(#stroke)" stroke-width="1.5"/>
  </g>
  <g opacity="0.8">
    <circle cx="184" cy="136" r="7" fill="#FF5F57"/>
    <circle cx="209" cy="136" r="7" fill="#FFBD2E"/>
    <circle cx="234" cy="136" r="7" fill="#28C840"/>
  </g>
  <text x="600" y="181" text-anchor="middle" font-family="-apple-system, BlinkMacSystemFont, 'Segoe UI', Helvetica, Arial, sans-serif" font-size="15" font-weight="700" letter-spacing="5" fill="#64748B">AI PRODUCT MANAGER · SHANGHAI</text>
  <text x="600" y="262" text-anchor="middle" font-family="-apple-system, BlinkMacSystemFont, 'Segoe UI', Helvetica, Arial, sans-serif" font-size="78" font-weight="800" fill="url(#title)">bingchuH</text>
  <text x="600" y="312" text-anchor="middle" font-family="-apple-system, BlinkMacSystemFont, 'Segoe UI', Helvetica, Arial, sans-serif" font-size="26" font-weight="600" fill="#334155">Statistics × Computer Science × Product Strategy</text>
  <text x="600" y="357" text-anchor="middle" font-family="-apple-system, BlinkMacSystemFont, 'Segoe UI', Helvetica, Arial, sans-serif" font-size="18" fill="#475569">I design AI-native products where user needs, data signals, and model capabilities meet.</text>
  <g font-family="-apple-system, BlinkMacSystemFont, 'Segoe UI', Helvetica, Arial, sans-serif" font-size="15" font-weight="700" fill="#334155">
    <rect x="318" y="390" width="170" height="42" rx="21" fill="#FFFFFF" fill-opacity="0.68" stroke="#FFFFFF"/>
    <text x="403" y="417" text-anchor="middle">LLM Products</text>
    <rect x="508" y="390" width="168" height="42" rx="21" fill="#FFFFFF" fill-opacity="0.68" stroke="#FFFFFF"/>
    <text x="592" y="417" text-anchor="middle">Agent UX</text>
    <rect x="696" y="390" width="186" height="42" rx="21" fill="#FFFFFF" fill-opacity="0.68" stroke="#FFFFFF"/>
    <text x="789" y="417" text-anchor="middle">Product Analytics</text>
  </g>
</svg>
