<svg width="100%" height="auto" viewBox="0 0 1200 420" preserveAspectRatio="xMidYMid meet" fill="none" xmlns="http://www.w3.org/2000/svg" role="img" aria-label="Tech and product stack">
  <defs>
    <linearGradient id="panel" x1="92" y1="50" x2="1108" y2="360" gradientUnits="userSpaceOnUse">
      <stop stop-color="#FFFFFF" stop-opacity="0.9"/>
      <stop offset="1" stop-color="#F8FAFC" stop-opacity="0.68"/>
    </linearGradient>
    <filter id="shadow" x="50" y="10" width="1100" height="390" filterUnits="userSpaceOnUse" color-interpolation-filters="sRGB">
      <feDropShadow dx="0" dy="25" stdDeviation="30" flood-color="#94A3B8" flood-opacity="0.16"/>
    </filter>
  </defs>
  <g filter="url(#shadow)">
    <rect x="92" y="50" width="1016" height="310" rx="36" fill="url(#panel)"/>
    <rect x="92.75" y="50.75" width="1014.5" height="308.5" rx="35.25" stroke="#FFFFFF" stroke-opacity="0.95" stroke-width="1.5"/>
  </g>
  <g font-family="-apple-system, BlinkMacSystemFont, 'Segoe UI', Helvetica, Arial, sans-serif">
    <text x="140" y="112" font-size="15" font-weight="800" letter-spacing="4" fill="#64748B">PRODUCT × AI × DATA</text>
    <text x="140" y="153" font-size="32" font-weight="800" fill="#0F172A">A stack for turning intelligence into products</text>
    <g font-size="14" font-weight="750" fill="#334155">
      <rect x="140" y="190" width="154" height="38" rx="19" fill="#EEF2FF"/><text x="217" y="214" text-anchor="middle">Product Strategy</text>
      <rect x="310" y="190" width="116" height="38" rx="19" fill="#ECFEFF"/><text x="368" y="214" text-anchor="middle">Figma</text>
      <rect x="442" y="190" width="118" height="38" rx="19" fill="#F8FAFC"/><text x="501" y="214" text-anchor="middle">Notion</text>
      <rect x="576" y="190" width="108" height="38" rx="19" fill="#EFF6FF"/><text x="630" y="214" text-anchor="middle">Jira</text>
      <rect x="700" y="190" width="112" height="38" rx="19" fill="#F5F3FF"/><text x="756" y="214" text-anchor="middle">OpenAI</text>
      <rect x="828" y="190" width="92" height="38" rx="19" fill="#F0FDFA"/><text x="874" y="214" text-anchor="middle">LLM</text>
      <rect x="936" y="190" width="96" height="38" rx="19" fill="#ECFDF5"/><text x="984" y="214" text-anchor="middle">RAG</text>
      <rect x="140" y="246" width="118" height="38" rx="19" fill="#F0FDFA"/><text x="199" y="270" text-anchor="middle">Agent</text>
      <rect x="274" y="246" width="126" height="38" rx="19" fill="#FFF7ED"/><text x="337" y="270" text-anchor="middle">Python</text>
      <rect x="416" y="246" width="92" height="38" rx="19" fill="#EFF6FF"/><text x="462" y="270" text-anchor="middle">SQL</text>
      <rect x="524" y="246" width="148" height="38" rx="19" fill="#F8FAFC"/><text x="598" y="270" text-anchor="middle">Statistics</text>
      <rect x="688" y="246" width="188" height="38" rx="19" fill="#EEF2FF"/><text x="782" y="270" text-anchor="middle">Product Analytics</text>
      <rect x="892" y="246" width="140" height="38" rx="19" fill="#FAF5FF"/><text x="962" y="270" text-anchor="middle">Documentation</text>
    </g>
  </g>
</svg>
